<?xml version="1.0" encoding="UTF-8"?>
<svg enable-background="new 0 0 578 462" version="1.1" viewBox="0 0 845 628" xml:space="preserve" xmlns="http://www.w3.org/2000/svg" xmlns:cc="http://creativecommons.org/ns#" xmlns:dc="http://purl.org/dc/elements/1.1/" xmlns:rdf="http://www.w3.org/1999/02/22-rdf-syntax-ns#"><metadata><rdf:RDF><cc:Work rdf:about=""><dc:format>image/svg+xml</dc:format><dc:type rdf:resource="http://purl.org/dc/dcmitype/StillImage"/><dc:date>2016</dc:date><dc:creator><cc:Agent><dc:title>Lazur</dc:title></cc:Agent></dc:creator><dc:description>Original raster images of this series were uploaded by NicholasJudy456 to openclipart embedded in svg-s (416 in total).  This is one of the refixes upon request by the original author.</dc:description><dc:contributor><cc:Agent><dc:title/></cc:Agent></dc:contributor><dc:title/></cc:Work></rdf:RDF></metadata><path d="m67.269 348.52-0.82997-1.4831-34.939-2.9974-11.5-5.4042v-4.1078l2e-14 -4.1078 10.966-5.3784 36.534-6.1587 14.483 1.1263 14.663 1.3103 37.154 22.773 14.267 32.411 9.9687 17.32 3.9845 19.782 5.5679 28.84 1.5834 9.0581-1.3564 16.56-9.5735 4.8512-10.742-7.9838-0.71302-1.7136-5.7744-20.81-5.0614-19.096-18.8-41.336-9.2277-10-8.8257-10.373z" fill="#c8967b"/><path d="m439.73 605.95-5.2332-2.6219-5.2198-2.7565-3.7135-16.268-3.4937-16.086-1.7217-3.6105-2.2865-3.5932-2.5648 2.8791-13 15.063-11 12.201-3.7102 1.9197-4.1791 1.9197-1.595-5.4243-1.1261-5.4243 2.5254-4.9836 12.026-19.552 12.064-19.626 2.5629-5.0577-4.1311-70.783-5.5788-13.65-19.858-1.7151-14.266-3.5208-0.6521 34.118-1.6472 63.618-0.9951 29.5-1.9793 16-4.3016 9.5h-4.2172-4.2172l-2.1222-8.75-4.0438-22.099-2.4403-13.867-0.51865-0.51865-40.719 27.365-5.4607-2.4881 0.66758-3.0712 1.4257-5.0851 7.6226-10.24 6.8645-8.2263 16-11.639 16.202-11.795 1.7784-42.042 1.5763-41.886-0.77841-0.76755-8.7784-3.7283-21-8.583-13-5.6223-18.585-18.456-19.174-29.58-4.9467-13.21-5.6819-13.971-0.73515-0.76133-54.494 3.1034-33.09-7.2622-21.167-7.8525-7.2835 5.8531-39.842 19.93-34 12.225-7.3991 1.0307-7.6983 0.73146 10.899-13.459 25.198-27.983 14-14.823 29.364-21.971 1.4275-10.986 8.4833-18.014 31.725-31.43 34.572-13.006 26.158-7.2114 30.024-5.3984 30.239-5.6764 3.0472-5.278 20.232-27.5 17.4-22.5 51.329-56.635 21-15.271 32-22.631 11-7.3606 32.859-14.603h3.2555l5.6458 0.9088 2.3903 0.9088 3.2674 4.9868-8.0048 23.929-20.09 28.766-21.726 22 2.0408 3.569 9.5704-7.0253 37.792-13.175 36.601-8.8682h6.2532 6.2532l6.5492 6.757-5.4166 10.743-10.082 13-17.62 20.86-7.538 7.8604 9-0.59069 20-1.1914 11-0.60076 22.5 1.0814 28.282 1.6829 5.7816 0.60152 3.8944 7.6337-8.6599 11.663-28.618 26.977 2.9102 0.72381 48.551 5.2736 45.641 4.5498 78.277 17.489 78.586 17.798-19.043 46.249-29.839 68.94-19.175 40.338-8.687 17.338-1.2004-0.44259-34.2-10.547-57.5-17.51-24.721-7.2366 5.7999 48.115 6.0209 47.946-1.2701 9.3737-10.33 7.1139-14.58-4.1263-24.42-11.606-14.5-12.564-21.582-19.076-7.082-6.512 5.6535 29.396-0.0027663 19-3.9361 23-3.3063 7.3935-6.2109 2.1651-21.033-14.325-27.735-27.234-7.1011-15-11.407 45.44-4.4821 11.043-7.7119 2.0766-11.562-5.8549-16-12.4-0.63807 9.3473-0.75 16.985-0.11193 7.6374 9.848 23.289 1.576 12.927 1.576 17.501v4.5748l-2.5168 4.9668z" fill="#00a1e7"/><path d="m226 317.9 4.5 0.077549 5-1.3324 8-2.8876 7.5327-5.5495 4.5327-3.9942 5.9308-11.713-0.031801-16-4.8428-9.913-6.9544-7.6976-8.6393-5.063-10.528-2.8026h-4-4l-5 1.3324-8 2.8876-7.5327 5.5495-4.5327 3.9942-5.9346 11.713 0.02549 16.033 5.9091 11.679 4.5327 3.9942 7.5327 5.5554 7.5 2.8101 4.5 1.2489z" fill="#fff"/><path d="m226.36 294h-2.0112l-4.3486-4.6289v-2.0112-2.0112l4.6289-4.3486h2.0112 2.0112l4.3486 4.6289v2.0112 2.0112l-4.6289 4.3486z" fill="#c8967b"/><path d="m56.5 370.62-2 0.57817 3.5-3.5366 34-30.597 30.5-27.061 3.1627-0.006231 6.4969 7.25 9.6756 10.89 3.1786 3.6399-26.514 15.156-36.547 15.956-11.726 3.5768z" fill="#fef100"/></svg>
